<svg width="179" height="33" viewBox="0 0 179 33" fill="none" xmlns="http://www.w3.org/2000/svg">
<mask id="mask0_3_4148" style="mask-type:luminance" maskUnits="userSpaceOnUse" x="0" y="0" width="29" height="33">
<path d="M0.313232 0.194489H28.8525V32.8842H0.313232V0.194489Z" fill="white"/>
</mask>
<g mask="url(#mask0_3_4148)">
<path d="M11.3796 32.926C5.27776 32.926 0.31424 28.1081 0.31424 22.1874V0.196472H8.96497V22.3249C8.96497 23.5407 9.9849 24.5304 11.2379 24.5304H23.0743L28.7659 32.926H11.3796ZM19.1344 20.7527V0.196472H27.7861V20.7527H19.1344Z" fill="#1B17FF"/>
</g>
<path d="M50.333 30.3534C48.8805 30.3534 47.5492 30.1526 46.3391 29.7528C45.1309 29.353 44.0811 28.7315 43.1917 27.8893C42.3042 27.048 41.6143 25.9679 41.122 24.6508C40.6316 23.3319 40.3874 21.7543 40.3874 19.9179V8.62845H44.0382V19.813C44.0382 22.1867 44.5808 23.9778 45.6679 25.1863C46.7568 26.3949 48.2979 26.9992 50.292 26.9992C52.2983 26.9992 53.8403 26.3949 54.9199 25.1863C56.0014 23.9778 56.5421 22.1867 56.5421 19.813V8.62845H60.2153V19.9179C60.2153 21.7543 59.9692 23.3319 59.477 24.6508C58.9866 25.9679 58.2967 27.048 57.4073 27.8893C56.5197 28.7315 55.4737 29.353 54.271 29.7528C53.0675 30.1526 51.7548 30.3534 50.333 30.3534Z" fill="#090910"/>
<path d="M67.8144 29.7528H64.1226V8.62845H67.6653V13.3505C68.2069 11.8886 69.0497 10.7371 70.1936 9.8949C71.3394 9.0509 72.7034 8.62845 74.2845 8.62845H76.3952V11.7584H74.4747C73.2087 11.7584 72.0703 12.0759 71.0588 12.71C70.0491 13.3451 69.2558 14.2623 68.6796 15.4636C68.1025 16.665 67.8144 18.115 67.8144 19.813V29.7528Z" fill="#090910"/>
<path d="M79.9868 5.21265C79.3874 5.21265 78.9026 5.0444 78.5324 4.70608C78.1642 4.36866 77.9805 3.9643 77.9805 3.4939C77.9805 2.99728 78.1642 2.58025 78.5324 2.24193C78.9026 1.90451 79.3874 1.73535 79.9868 1.73535C80.5984 1.73535 81.0879 1.90451 81.4561 2.24193C81.8262 2.58025 82.0118 2.99728 82.0118 3.4939C82.0118 3.9643 81.8225 4.36866 81.4449 4.70608C81.0692 5.0444 80.5835 5.21265 79.9868 5.21265ZM81.8216 29.7528H78.1483V8.62844H81.8216V29.7528Z" fill="#090910"/>
<path d="M95.2057 30.3534C93.6693 30.3534 92.2494 30.0676 90.947 29.4959C89.6464 28.9224 88.5118 28.1245 87.5422 27.1041C86.5745 26.0819 85.824 24.8932 85.2898 23.54C84.7575 22.1867 84.4918 20.7375 84.4918 19.1906C84.4918 17.6446 84.7547 16.1982 85.2824 14.8521C85.8091 13.5061 86.5522 12.3229 87.5124 11.3025C88.4717 10.2803 89.6054 9.47877 90.9134 8.89983C92.2233 8.31907 93.6618 8.02779 95.2281 8.02779C96.5929 8.02779 97.8236 8.27384 98.9199 8.76595C100.016 9.25624 100.958 9.88404 101.747 10.6511C102.537 11.4164 103.139 12.227 103.552 13.0827L103.466 11.0311V0.595551H107.135V29.7528H103.615V25.2587C103.16 26.2122 102.523 27.0715 101.706 27.8386C100.887 28.6039 99.9305 29.2136 98.8342 29.6696C97.7378 30.1255 96.5277 30.3534 95.2057 30.3534ZM95.8024 27.039C96.8708 27.039 97.8702 26.8391 98.8006 26.4383C99.7329 26.0385 100.551 25.4831 101.254 24.7738C101.96 24.0628 102.512 23.2306 102.91 22.2771C103.307 21.3246 103.507 20.296 103.507 19.1906C103.507 18.0861 103.307 17.0612 102.91 16.115C102.512 15.1696 101.96 14.3419 101.254 13.6327C100.551 12.9217 99.7329 12.3654 98.8006 11.9646C97.8702 11.5648 96.8708 11.364 95.8024 11.364C94.7358 11.364 93.7364 11.5612 92.8041 11.9538C91.8718 12.3473 91.057 12.8964 90.3615 13.6002C89.6651 14.3048 89.1206 15.1335 88.7281 16.086C88.3375 17.0395 88.1426 18.0743 88.1426 19.1906C88.1426 20.296 88.3338 21.3246 88.7169 22.2771C89.102 23.2306 89.639 24.0628 90.3279 24.7738C91.0188 25.4831 91.8308 26.0385 92.7631 26.4383C93.6954 26.8391 94.7078 27.039 95.8024 27.039Z" fill="#090910"/>
<path d="M113.48 5.21265C112.881 5.21265 112.396 5.0444 112.026 4.70608C111.658 4.36866 111.474 3.9643 111.474 3.4939C111.474 2.99728 111.658 2.58025 112.026 2.24193C112.396 1.90451 112.881 1.73535 113.48 1.73535C114.092 1.73535 114.581 1.90451 114.95 2.24193C115.32 2.58025 115.505 2.99728 115.505 3.4939C115.505 3.9643 115.316 4.36866 114.939 4.70608C114.563 5.0444 114.077 5.21265 113.48 5.21265ZM115.315 29.7528H111.642V8.62844H115.315V29.7528Z" fill="#090910"/>
<path d="M129.169 30.3534C127.717 30.3534 126.385 30.1526 125.175 29.7528C123.967 29.353 122.917 28.7315 122.028 27.8893C121.14 27.048 120.45 25.9679 119.958 24.6508C119.468 23.3319 119.223 21.7543 119.223 19.9179V8.62845H122.874V19.813C122.874 22.1867 123.417 23.9778 124.504 25.1863C125.593 26.3949 127.134 26.9992 129.128 26.9992C131.134 26.9992 132.676 26.3949 133.756 25.1863C134.838 23.9778 135.378 22.1867 135.378 19.813V8.62845H139.051V19.9179C139.051 21.7543 138.805 23.3319 138.313 24.6508C137.823 25.9679 137.133 27.048 136.243 27.8893C135.356 28.7315 134.31 29.353 133.107 29.7528C131.904 30.1526 130.591 30.3534 129.169 30.3534Z" fill="#090910"/>
<path d="M169.551 8.02779C172.256 8.02779 174.308 8.8953 175.708 10.6294C177.11 12.3617 177.811 14.9191 177.811 18.3005V29.7528H174.164V18.362C174.164 15.9331 173.666 14.1601 172.669 13.0429C171.671 11.9239 170.298 11.364 168.548 11.364C167.722 11.364 166.93 11.5404 166.169 11.8923C165.408 12.2451 164.728 12.7453 164.129 13.3939C163.533 14.0434 163.06 14.8123 162.712 15.7025C162.363 16.5926 162.19 17.5759 162.19 18.6515V29.7528H158.562V18.362C158.562 15.9331 158.063 14.1601 157.066 13.0429C156.071 11.9239 154.706 11.364 152.968 11.364C152.145 11.364 151.347 11.5404 150.577 11.8923C149.809 12.2451 149.127 12.7453 148.53 13.3939C147.933 14.0434 147.46 14.8123 147.109 15.7025C146.761 16.5926 146.587 17.5759 146.587 18.6515V29.7528H142.959V8.62844H146.416L146.46 12.71C146.831 11.8271 147.381 11.0338 148.112 10.3291C148.845 9.62532 149.709 9.06537 150.704 8.65015C151.701 8.23585 152.783 8.02779 153.952 8.02779C157.877 8.02779 160.409 9.837 161.549 13.4554C162.389 11.6462 163.512 10.2893 164.92 9.38469C166.329 8.48009 167.873 8.02779 169.551 8.02779Z" fill="#090910"/>
</svg>
